#!OML:ASF F:\VICON\USERDATA\INSTALL\rory3\rory3.ASF
:FULLY-SPECIFIED
:DEGREES
63
root 0.15708290391011845 17.84422649390365 10.046336997038553 0.28835857162777423 -0.6858283248484032 -2.0480047166496593
lfemur -12.309184009492352 -1.2337205384460477 -20.22064444246335
ltibia 42.54030133195696
lfoot -2.550912903119175 -5.201743779089825
ltoes -7.22457820771641
rfemur -14.792670597110275 3.0471493781637413 27.151554487244898
rtibia 48.67866990740085
rfoot -2.2449337295634884 -6.812178606962862
rtoes 3.382429321397308
lowerback 12.436947557388065 0.5454466999391239 1.2267208183966907
upperback -0.24781786314213455 1.0068242412081274 1.5339426515394026
thorax -7.109206710174283 0.4708694752331264 0.7861241797255121
lowerneck -17.6934326572103 -3.452170427796815 -2.0459638248438314
upperneck 17.48801234608966 -4.5321610696523775 1.9081215493448145
head 8.488068899242297 -2.0961371690887316 0.4061388240906781
lclavicle -7.486470974726957e-16 -6.456501283155967e-16
lhumerus -39.0361556956591 -2.5847809022180597 86.96584394476992
lradius 61.55219160732953
lwrist 16.896319645646436
lhand -27.924154789362383 13.405773729767876
lfingers 7.125020000000057
lthumb -1.3124707298631617 43.35883562916734
rclavicle -7.486470974726957e-16 -6.456501283155967e-16
rhumerus -37.51797928007802 -6.490625101344662 -85.9163531116636
rradius 62.14729447649508
rwrist -4.228772437297059
rhand -17.98136722343353 29.75191724308744
rfingers 7.125020000000057
rthumb 8.288054753209737 -0.05913139517288528
64
root 0.15706994173783126 17.84421827517507 10.045895413345004 0.288291040011399 -0.6858997281725939 -2.0480711072913844
lfemur -12.309529173057854 -1.2337953443758207 -20.220772013410695
ltibia 42.53981702597102
lfoot -2.5511789838646326 -5.201893633530096
ltoes -7.224759110110006
rfemur -14.793017848606656 3.047068622402232 27.15143040548621
rtibia 48.67815800301081
rfoot -2.2452079405451153 -6.812278065822677
rtoes 3.3822200056062175
lowerback 12.436893163226769 0.5454180430722201 1.2266459009927841
upperback -0.2478336841624088 1.0067782791351447 1.5339215941823328
thorax -7.10924588789634 0.47084931341789255 0.7860764568992467
lowerneck -17.693473190048042 -3.452192217352926 -2.0459757213954517
upperneck 17.487911517084175 -4.532193956784222 1.9080852128224906
head 8.488040684405691 -2.0961509625505745 0.4061272603298866
lclavicle -7.490585391528371e-16 -6.459687087972644e-16
lhumerus -39.03642813147118 -2.584951104652447 86.96570389389926
lradius 61.55138237849163
lwrist 16.896047195485945
lhand -27.92421598276976 13.405565964864927
lfingers 7.125020000000057
lthumb -1.3125298214389192 43.358627832279716
rclavicle -7.490585391528371e-16 -6.459687087972644e-16
rhumerus -37.51823096839411 -6.490945115037601 -85.91655963320693
rradius 62.14649782144872
rwrist -4.229002570416595
rhand -17.981400337234433 29.751746939721137
rfingers 7.125020000000057
rthumb 8.288022795834904 -0.0593016415994993
65
root 0.15708086674953 17.844225202232042 10.046267596873436 0.2883479582256141 -0.6858395467358076 -2.0480151507339905
lfemur -12.309238256079777 -1.2337322950936633 -20.2206644917653
ltibia 42.54022521747203
lfoot -2.550954720894466 -5.201767330509522
ltoes -7.224606638693751
rfemur -14.79272517184104 3.0471366864288227 27.151534986310722
rtibia 48.678589455496244
rfoot -2.2449768251027478 -6.812194238113636
rtoes 3.382396424914319
lowerback 12.436939008694283 0.5454421961693428 1.22670904422958
upperback -0.247820349604917 1.0068170177179925 1.533939342123591
thorax -7.109212867422432 0.4708663065624379 0.7861166795119149
lowerneck -17.693439027431104 -3.4521738522864736 -2.045965694529372
upperneck 17.487996499604087 -4.532166238258949 1.9081158386252253
head 8.48806446494287 -2.0961393368964276 0.40613700670720126
lclavicle -7.48711760459474e-16 -6.457001970530829e-16
lhumerus -39.03619851220921 -2.5848076515686857 86.96582193409859
lradius 61.55206442732767
lwrist 16.8962768268413
lhand -27.924164406639104 13.40574107702553
lfingers 7.125020000000057
lthumb -1.3124800168118749 43.35880297139822
rclavicle -7.48711760459474e-16 -6.457001970530829e-16
rhumerus -37.518018835910695 -6.490675395328461 -85.91638556899709
rradius 62.14716927261512
rwrist -4.228808605472487
rhand -17.981372427663857 29.751890477874156
rfingers 7.125020000000057
rthumb 8.288049730725614 -0.05915815143741687
66
root 0.15708994785162414 17.84423096014913 10.046576963738447 0.28839526985589475 -0.6857895226455185 -2.047968638453314
lfemur -12.308996439699925 -1.233679887189304 -20.220575117486717
ltibia 42.54056451492972
lfoot -2.5507683087436894 -5.201662344752411
ltoes -7.22447990120956
rfemur -14.792481892688356 3.0471932626954166 27.151621916116444
rtibia 48.67894808797894
rfoot -2.244784717031329 -6.812124558738903
rtoes 3.382543068395573
lowerback 12.436977116421994 0.5454622727373968 1.2267615302310335
upperback -0.2478092656371097 1.0068492180520079 1.5339540945898555
thorax -7.109185420102189 0.4708804316256206 0.7861501134030818
lowerneck -17.69341063073728 -3.4521585868526214 -2.045957359985019
upperneck 17.48806713888218 -4.53214319803118 1.9081412954438557
head 8.488084231831174 -2.096129673405428 0.4061451081033263
lclavicle -7.484235106337221e-16 -6.454770043801939e-16
lhumerus -39.036007647794754 -2.5846884103142806 86.96592005162292
lradius 61.552631360827064
lwrist 16.896467701308033
lhand -27.924121535462298 13.40588663397798
lfingers 7.125020000000057
lthumb -1.3124386181465533 43.358948550758655
rclavicle -7.484235106337221e-16 -6.454770043801939e-16
rhumerus -37.51784250687852 -6.490451198569406 -85.91624088312359
rradius 62.1477273971061
rwrist -4.228647377685397
rhand -17.98134922863517 29.75200978983994
rfingers 7.125020000000057
rthumb 8.288072119579665 -0.05903887936272205
67
root 0.1570813562713663 17.84422551261575 10.04628427346558 0.28835050858523925 -0.685836850159524 -2.0480126434637485
lfemur -12.309225220833936 -1.2337294700165624 -20.220659673995332
ltibia 42.54024350748934
lfoot -2.550944672244268 -5.201761671194157
ltoes -7.224599806839495
rfemur -14.79271205774362 3.047139736203798 27.15153967231003
rtibia 48.678608787778785
rfoot -2.244966469410794 -6.812190482008362
rtoes 3.3824043298123674
lowerback 12.436941062912444 0.5454432784078594 1.226711873516548
upperback -0.24781975211749552 1.0068187534948259 1.533940137363453
thorax -7.109211387859437 0.4708670679817893 0.7861184817843295
lowerneck -17.6934374966916 -3.45217302939481 -2.045965245251144
upperneck 17.488000307453483 -4.532164996262714 1.9081172108891282
head 8.488065530487928 -2.096138815980595 0.40613744341744484
lclavicle -7.486962221930227e-16 -6.456881657284765e-16
lhumerus -39.036188223557275 -2.5848012238028475 86.96582722317805
lradius 61.55209498819185
lwrist 16.89628711603511
lhand -27.924162095644583 13.405748923353642
lfingers 7.125020000000057
lthumb -1.3124777851938996 43.358810818934245
rclavicle -7.486962221930227e-16 -6.456881657284765e-16
rhumerus -37.51800933079659 -6.490663309878034 -85.91637776962497
rradius 62.147199358624825
rwrist -4.2287999143993575
rhand -17.98137117710737 29.75189690945173
rfingers 7.125020000000057
rthumb 8.288050937609187 -0.05915172201019353
68
root 0.1570662951511689 17.844215963039005 10.045771184691695 0.2882720416609601 -0.6859198157322925 -2.048089784656818
lfemur -12.309626276292281 -1.233816389174465 -20.220807902342333
ltibia 42.53968077845712
lfoot -2.551253839103091 -5.201935791371474
ltoes -7.2248100025253414
rfemur -14.79311553922881 3.047045903765548 27.151395498151526
rtibia 48.67801399136833
rfoot -2.245285083024487 -6.812306046113605
rtoes 3.382161119784065
lowerback 12.436877860774471 0.545409981171304 1.2266248248336489
upperback -0.2478381350152627 1.0067653488423975 1.5339156702155983
thorax -7.109256909579708 0.4708436413897099 0.7860630312621009
lowerneck -17.693484592959702 -3.452198347305756 -2.0459790681960883
upperneck 17.487883151336643 -4.532203208765579 1.908074990440414
head 8.48803274685907 -2.0961548429999985 0.4061240071517206
lclavicle -7.491742880959849e-16 -6.460583335383648e-16
lhumerus -39.0365047745505 -2.584998986898832 86.96566449404979
lradius 61.55115472196758
lwrist 16.895970548370062
lhand -27.92423319802182 13.405507515346805
lfingers 7.125020000000057
lthumb -1.3125464453926239 43.358569373763494
rclavicle -7.491742880959849e-16 -6.460583335383648e-16
rhumerus -37.51830177467844 -6.491035142977254 -85.91661773293657
rradius 62.146273702250014
rwrist -4.229067312679364
rhand -17.981409652983523 29.75169902908005
rfingers 7.125020000000057
rthumb 8.288013805417691 -0.05934953622200935
